<svg width="84" height="28" viewBox="0 0 84 28" fill="none" xmlns="http://www.w3.org/2000/svg">
<path d="M11.6002 14.2119C7.77091 15.3935 3.98995 16.5869 0 17.4673C0.18305 17.1654 0.42674 17.1492 0.625452 17.0815C4.95642 15.6064 9.28899 14.1354 13.6212 12.6635C13.8236 12.5947 14.0307 12.5353 14.2264 12.4525C14.743 12.2339 14.8097 11.8311 14.3478 11.5275C13.8493 11.2 13.3137 10.9217 12.7908 10.6275C10.3606 9.25998 7.93023 7.89279 5.49757 6.52918C4.76982 6.12125 4.50415 6.26983 4.50341 7.08198C4.50128 9.41895 4.50354 11.7559 4.50354 14.0929C4.50354 14.2273 4.51632 14.3645 4.49263 14.4955C4.43292 14.8256 4.26493 15.0734 3.85874 15.0478C3.46678 15.023 3.36996 14.771 3.37028 14.4473C3.37228 12.4129 3.36986 10.3786 3.36904 8.34421C3.3689 8.00796 3.3575 7.67124 3.37241 7.33555C3.3952 6.82236 3.34098 6.36292 2.94617 5.9341C2.59528 5.55298 2.62243 5.04698 2.8769 4.60218C3.11814 4.18049 3.55383 3.98033 4.04326 4.00152C4.6002 4.02563 5.05502 4.29214 5.22814 4.81106C5.33134 5.1204 5.53908 5.27551 5.80787 5.42633C8.90173 7.16243 11.9928 8.90294 15.0827 10.6452C15.7371 11.0142 16.0192 11.6302 15.8642 12.2631C15.7587 12.6938 15.5142 12.9707 15.0515 13.1123C13.91 13.4617 12.7777 13.8374 11.6002 14.2119Z" fill="#E5E1E4"/>
<path d="M5.83343 16.8156C5.98838 16.5212 6.2246 16.383 6.50395 16.2872C10.8481 14.798 15.2068 13.3473 19.5821 11.9403C19.7099 11.8992 19.8407 11.8092 19.9966 11.8928C20.0241 12.0585 19.873 12.0648 19.7713 12.1077C18.9375 12.46 18.1074 12.8204 17.2659 13.1559C16.9258 13.2915 16.7701 13.4799 16.7718 13.8391C16.7831 16.2933 16.7787 18.7476 16.7737 21.2019C16.7732 21.4703 16.865 21.6679 17.0747 21.8649C17.6997 22.4521 17.6638 23.2431 17.0241 23.716C16.3715 24.1986 15.5968 24.0594 15.0916 23.3498C14.956 23.1593 14.7866 23.028 14.5858 22.9123C11.8955 21.3634 9.20576 19.8135 6.51785 18.2609C5.80109 17.8469 5.6619 17.5564 5.83343 16.8156ZM12.602 20.5568C13.2448 20.9243 13.8849 21.2959 14.5316 21.6572C14.7811 21.7965 15.0029 22.0499 15.3542 21.8574C15.6928 21.6719 15.6896 21.3734 15.6892 21.0643C15.6869 18.93 15.6897 16.7957 15.6862 14.6614C15.6859 14.4821 15.7296 14.2917 15.5887 14.1016C15.4781 14.1249 15.3548 14.1377 15.2417 14.1765C12.7513 15.0308 10.2622 15.8881 7.77252 16.7443C7.54858 16.8213 7.33143 16.9018 7.29609 17.1656C7.25787 17.451 7.45638 17.5883 7.67871 17.7163C9.2984 18.649 10.9171 19.5833 12.602 20.5568Z" fill="#E5E1E4"/>
<path d="M26.48 21V6.8H29.5201V12.9959L34.676 6.8H38.2121L33.0001 13.068L38.5321 21H35.088L31 15.1041L29.5201 16.824V21H26.48ZM42.52 21.24C41.4186 21.24 40.5553 20.8833 39.93 20.17C39.3046 19.4567 38.992 18.4613 38.992 17.184V10.28H41.9921V16.472C41.9921 17.2986 42.1214 17.9033 42.3801 18.286C42.6387 18.6686 43.04 18.8599 43.584 18.8599C44.2 18.8599 44.676 18.6499 45.012 18.23C45.348 17.81 45.516 17.1786 45.516 16.336V10.28H48.5161V21H45.788L45.704 17.912L46.072 17.992C45.9227 19.0666 45.548 19.8767 44.948 20.422C44.348 20.9673 43.5387 21.24 42.52 21.24ZM53.256 21L49.336 10.28H52.4721L55.012 17.9839L57.54 10.28H60.6761L56.7441 21H53.256ZM66.224 21.24C65.1307 21.24 64.1753 21.0093 63.358 20.548C62.5407 20.0867 61.906 19.4353 61.454 18.594C61.002 17.7527 60.776 16.768 60.776 15.64C60.776 14.5067 61.002 13.5227 61.454 12.688C61.906 11.8533 62.5407 11.2033 63.358 10.738C64.1753 10.2727 65.1307 10.04 66.224 10.04C67.3174 10.04 68.2714 10.2727 69.086 10.738C69.9007 11.2033 70.5341 11.8533 70.9861 12.688C71.4381 13.5227 71.6641 14.5067 71.6641 15.64C71.6641 16.768 71.4381 17.7527 70.9861 18.594C70.5341 19.4353 69.9007 20.0867 69.086 20.548C68.2714 21.0093 67.3174 21.24 66.224 21.24ZM66.224 18.932C66.9733 18.932 67.552 18.644 67.96 18.068C68.368 17.492 68.572 16.6827 68.572 15.64C68.572 14.6053 68.368 13.798 67.96 13.218C67.552 12.638 66.9733 12.348 66.224 12.348C65.4747 12.348 64.8947 12.638 64.4841 13.218C64.0734 13.798 63.8681 14.6053 63.8681 15.64C63.8681 16.6827 64.0734 17.492 64.4841 18.068C64.8947 18.644 65.4747 18.932 66.224 18.932ZM71.556 21L75.372 15.56L71.66 10.28H74.8441L77.132 13.728L79.364 10.28H82.6121L78.9161 15.576L82.7201 21H79.536L77.18 17.368L74.8041 21H71.556Z" fill="#E5E1E4"/>
</svg>
